<?xml version="1.0" encoding="UTF-8"?>
<svg version="1.1" xmlns="http://www.w3.org/2000/svg" width="201" height="90">
<path d="M0 0 C66.33 0 132.66 0 201 0 C201 29.7 201 59.4 201 90 C134.67 90 68.34 90 0 90 C0 60.3 0 30.6 0 0 Z " fill="#FDFEFE" transform="translate(0,0)"/>
<path d="M0 0 C6.27 0 12.54 0 19 0 C19 2.31 19 4.62 19 7 C17.35 7 15.7 7 14 7 C14 6.01 14 5.02 14 4 C10.37 4 6.74 4 3 4 C3 6.31 3 8.62 3 11 C4.32 11 5.64 11 7 11 C7 9.68 7 8.36 7 7 C7.99 7 8.98 7 10 7 C10 7.99 10 8.98 10 10 C11.65 10 13.3 10 15 10 C15 10.66 15 11.32 15 12 C16.32 12 17.64 12 19 12 C19 15.96 19 19.92 19 24 C16.69 24.66 14.38 25.32 12 26 C12.33 26.99 12.66 27.98 13 29 C10.03 29 7.06 29 4 29 C4 28.01 4 27.02 4 26 C2.35 26 0.7 26 -1 26 C-1 26.99 -1 27.98 -1 29 C-3.97 29 -6.94 29 -10 29 C-10 28.01 -10 27.02 -10 26 C-9.01 26 -8.02 26 -7 26 C-7 21.05 -7 16.1 -7 11 C-6.01 10.67 -5.02 10.34 -4 10 C-4 11.98 -4 13.96 -4 16 C-0.37 16 3.26 16 7 16 C7 15.34 7 14.68 7 14 C4.69 14 2.38 14 0 14 C0 13.34 0 12.68 0 12 C-0.66 12 -1.32 12 -2 12 C-2 8.7 -2 5.4 -2 2 C-1.34 2 -0.68 2 0 2 C0 1.34 0 0.68 0 0 Z " fill="#B6BBC8" transform="translate(22,21)"/>
<path d="M0 0 C4 0 4 0 6.5625 0.5625 C9.1271951 1.2236306 9.1271951 1.2236306 12 0 C12.825 0.144375 13.65 0.28875 14.5 0.4375 C17.62350081 0.9394912 20.35100805 1.03850669 23.5 1 C27.47591082 0.95144749 31.0783901 1.33045685 35 2 C36.33981486 1.6937566 37.67511887 1.36548445 39 1 C39.99 1.33 40.98 1.66 42 2 C42 3.32 42 4.64 42 6 C28.14 6 14.28 6 0 6 C0 4.02 0 2.04 0 0 Z " fill="#D9D9D9" transform="translate(12,56)"/>
<path d="M0 0 C6.27 0 12.54 0 19 0 C19 2.31 19 4.62 19 7 C17.35 7 15.7 7 14 7 C14 6.01 14 5.02 14 4 C10.37 4 6.74 4 3 4 C3 6.31 3 8.62 3 11 C4.32 11 5.64 11 7 11 C7 11.99 7 12.98 7 14 C4.69 14 2.38 14 0 14 C0 13.34 0 12.68 0 12 C-0.66 12 -1.32 12 -2 12 C-2 8.7 -2 5.4 -2 2 C-1.34 2 -0.68 2 0 2 C0 1.34 0 0.68 0 0 Z " fill="#27A7FD" transform="translate(22,21)"/>
<path d="M0 0 C1.98 0 3.96 0 6 0 C5.67 2.31 5.34 4.62 5 7 C5.99 7 6.98 7 8 7 C7.814375 6.030625 7.62875 5.06125 7.4375 4.0625 C7.293125 3.051875 7.14875 2.04125 7 1 C8 0 8 0 11.0625 -0.0625 C12.5165625 -0.0315625 12.5165625 -0.0315625 14 0 C14 0.99 14 1.98 14 3 C13.34 3 12.68 3 12 3 C12.33 7.29 12.66 11.58 13 16 C11.35 16 9.7 16 8 16 C8.33 14.02 8.66 12.04 9 10 C7.68 10 6.36 10 5 10 C5 11.98 5 13.96 5 16 C3.35 16 1.7 16 0 16 C0 10.72 0 5.44 0 0 Z " fill="#0972EC" transform="translate(99,33)"/>
<path d="M0 0 C1.51400391 0.01740234 1.51400391 0.01740234 3.05859375 0.03515625 C4.07050781 0.04417969 5.08242188 0.05320313 6.125 0.0625 C7.29869141 0.07990234 7.29869141 0.07990234 8.49609375 0.09765625 C8.49609375 1.74765625 8.49609375 3.39765625 8.49609375 5.09765625 C6.84609375 5.09765625 5.19609375 5.09765625 3.49609375 5.09765625 C3.49609375 4.43765625 3.49609375 3.77765625 3.49609375 3.09765625 C2.50609375 3.09765625 1.51609375 3.09765625 0.49609375 3.09765625 C0.49609375 4.41765625 0.49609375 5.73765625 0.49609375 7.09765625 C1.46546875 7.07703125 2.43484375 7.05640625 3.43359375 7.03515625 C6.49609375 7.09765625 6.49609375 7.09765625 7.49609375 8.09765625 C7.62890625 9.91015625 7.62890625 9.91015625 7.62109375 12.09765625 C7.62367187 12.81953125 7.62625 13.54140625 7.62890625 14.28515625 C7.49609375 16.09765625 7.49609375 16.09765625 6.49609375 17.09765625 C4.81000409 17.16971136 3.12108716 17.18151693 1.43359375 17.16015625 C0.51449219 17.15113281 -0.40460937 17.14210938 -1.3515625 17.1328125 C-2.06183594 17.12121094 -2.77210937 17.10960938 -3.50390625 17.09765625 C-3.50390625 15.77765625 -3.50390625 14.45765625 -3.50390625 13.09765625 C-0.86390625 13.42765625 1.77609375 13.75765625 4.49609375 14.09765625 C4.49609375 12.77765625 4.49609375 11.45765625 4.49609375 10.09765625 C2.79453125 10.12859375 2.79453125 10.12859375 1.05859375 10.16015625 C-2.50390625 10.09765625 -2.50390625 10.09765625 -3.50390625 9.09765625 C-3.63671875 7.28515625 -3.63671875 7.28515625 -3.62890625 5.09765625 C-3.63148437 4.37578125 -3.6340625 3.65390625 -3.63671875 2.91015625 C-3.42540627 0.02636242 -2.89803239 0.11302778 0 0 Z " fill="#3196F5" transform="translate(58.50390625,32.90234375)"/>
<path d="M0 0 C3 2 3 2 3.50390625 3.98828125 C3.6574776 10.07994487 3.6574776 10.07994487 1.7578125 12.73828125 C0.1875 14.125 0.1875 14.125 -3 16 C-3.99 15.67 -4.98 15.34 -6 15 C-6 13.02 -6 11.04 -6 9 C-6.66 9 -7.32 9 -8 9 C-8.33 8.01 -8.66 7.02 -9 6 C-8.34 5.34 -7.68 4.68 -7 4 C-7 2.68 -7 1.36 -7 0 C-4.28569464 -1.35715268 -2.88661718 -0.77445827 0 0 Z " fill="#B2C6EE" transform="translate(49,24)"/>
<path d="M0 0 C1.37478516 0.01740234 1.37478516 0.01740234 2.77734375 0.03515625 C3.69644531 0.04417969 4.61554688 0.05320313 5.5625 0.0625 C6.27277344 0.07410156 6.98304688 0.08570313 7.71484375 0.09765625 C7.71484375 1.74765625 7.71484375 3.39765625 7.71484375 5.09765625 C6.39484375 5.09765625 5.07484375 5.09765625 3.71484375 5.09765625 C3.71484375 4.43765625 3.71484375 3.77765625 3.71484375 3.09765625 C2.72484375 3.09765625 1.73484375 3.09765625 0.71484375 3.09765625 C0.71484375 6.72765625 0.71484375 10.35765625 0.71484375 14.09765625 C1.70484375 14.09765625 2.69484375 14.09765625 3.71484375 14.09765625 C3.71484375 13.43765625 3.71484375 12.77765625 3.71484375 12.09765625 C5.03484375 12.09765625 6.35484375 12.09765625 7.71484375 12.09765625 C7.71484375 13.74765625 7.71484375 15.39765625 7.71484375 17.09765625 C6.06909809 17.12453776 4.42322962 17.14399748 2.77734375 17.16015625 C1.86082031 17.17175781 0.94429687 17.18335937 0 17.1953125 C-2.28515625 17.09765625 -2.28515625 17.09765625 -3.28515625 16.09765625 C-3.38490657 13.58629521 -3.42397808 11.1086221 -3.41015625 8.59765625 C-3.41402344 7.89511719 -3.41789063 7.19257812 -3.421875 6.46875 C-3.40969189 0.14571333 -3.40969189 0.14571333 0 0 Z " fill="#1E61DF" transform="translate(141.28515625,32.90234375)"/>
<path d="M0 0 C4.29 0 8.58 0 13 0 C13 1.65 13 3.3 13 5 C12.01 5 11.02 5 10 5 C10 4.34 10 3.68 10 3 C9.34 3 8.68 3 8 3 C8 6.63 8 10.26 8 14 C8.66 14 9.32 14 10 14 C10 14.99 10 15.98 10 17 C7.69 17 5.38 17 3 17 C3.33 13.04 3.66 9.08 4 5 C2.68 5 1.36 5 0 5 C0 3.35 0 1.7 0 0 Z " fill="#1E66E1" transform="translate(76,33)"/>
<path d="M0 0 C0.33 0.66 0.66 1.32 1 2 C2.32 2 3.64 2 5 2 C5 3.32 5 4.64 5 6 C3.02 6 1.04 6 -1 6 C-1 6.66 -1 7.32 -1 8 C-1.99 8 -2.98 8 -4 8 C-4.33 7.34 -4.66 6.68 -5 6 C-6.11375 6.2784375 -6.11375 6.2784375 -7.25 6.5625 C-10.02319878 7.00369071 -11.35307668 6.68307699 -14 6 C-16.18703385 6.37907282 -16.18703385 6.37907282 -18 7 C-18.66 5.68 -19.32 4.36 -20 3 C-14.21634458 -0.85577028 -6.61018848 1.03851804 0 2 C0 1.34 0 0.68 0 0 Z " fill="#D7D7D7" transform="translate(144,56)"/>
<path d="M0 0 C0.66 0 1.32 0 2 0 C2 1.98 2 3.96 2 6 C5.3 6 8.6 6 12 6 C12 6.66 12 7.32 12 8 C7.545 8.495 7.545 8.495 3 9 C2.67 11.31 2.34 13.62 2 16 C2.99 16.33 3.98 16.66 5 17 C5 17.66 5 18.32 5 19 C2.03 19 -0.94 19 -4 19 C-4 18.01 -4 17.02 -4 16 C-3.01 16 -2.02 16 -1 16 C-1.01160156 14.92878906 -1.02320313 13.85757813 -1.03515625 12.75390625 C-1.04453299 11.35677257 -1.05363331 9.95963701 -1.0625 8.5625 C-1.07506836 7.50192383 -1.07506836 7.50192383 -1.08789062 6.41992188 C-1.09653588 4.61306441 -1.05220011 2.80612397 -1 1 C-0.67 0.67 -0.34 0.34 0 0 Z " fill="#838383" transform="translate(16,31)"/>
<path d="M0 0 C1.80411967 2.75924185 2.0127245 3.88972103 1.625 7.25 C1.41875 8.1575 1.2125 9.065 1 10 C1.66 10 2.32 10 3 10 C3 10.66 3 11.32 3 12 C5.31 12 7.62 12 10 12 C10 12.66 10 13.32 10 14 C6.37 14 2.74 14 -1 14 C-1 12.02 -1 10.04 -1 8 C-1.99 8.495 -1.99 8.495 -3 9 C-3.31241371 11.54941373 -3.51303421 14.00361513 -3.625 16.5625 C-3.66367188 17.27341797 -3.70234375 17.98433594 -3.7421875 18.71679688 C-3.83671783 20.47742425 -3.91945817 22.23867728 -4 24 C-4.33 24 -4.66 24 -5 24 C-5 18.39 -5 12.78 -5 7 C-5.66 7 -6.32 7 -7 7 C-7 5.68 -7 4.36 -7 3 C-4.69 3 -2.38 3 0 3 C0 2.01 0 1.02 0 0 Z " fill="#AFB3B7" transform="translate(19,23)"/>
<path d="M0 0 C6.6 0 13.2 0 20 0 C20.33 1.65 20.66 3.3 21 5 C18.36799752 6.31600124 16.78805011 5.891131 13.875 5.5625 C9.20937933 5.0830291 4.6868257 4.91156933 0 5 C0 3.35 0 1.7 0 0 Z " fill="#D8D8D8" transform="translate(95,57)"/>
<path d="M0 0 C1.98 0 3.96 0 6 0 C6 5.61 6 11.22 6 17 C4.02 17 2.04 17 0 17 C0 11.39 0 5.78 0 0 Z " fill="#2087F1" transform="translate(122,33)"/>
<path d="M0 0 C0.99 0 1.98 0 3 0 C3.05395478 1.62463842 3.09277195 3.24978541 3.125 4.875 C3.14820313 5.77992187 3.17140625 6.68484375 3.1953125 7.6171875 C3 10 3 10 1 12 C-2.125 12.125 -2.125 12.125 -5 12 C-5 9.69 -5 7.38 -5 5 C-3.68 4.67 -2.36 4.34 -1 4 C-0.67 2.68 -0.34 1.36 0 0 Z " fill="#0150D7" transform="translate(37,34)"/>
<path d="M0 0 C1.093125 0.185625 2.18625 0.37125 3.3125 0.5625 C6.93624133 1.2578068 6.93624133 1.2578068 10 0 C12.1875 0.4375 12.1875 0.4375 14 1 C14 2.65 14 4.3 14 6 C9.38 6 4.76 6 0 6 C0 4.02 0 2.04 0 0 Z " fill="#DCDCDC" transform="translate(170,56)"/>
<path d="M0 0 C2.97 0 5.94 0 9 0 C9.09765625 6.15234375 9.09765625 6.15234375 9 8 C8 9 8 9 5.71484375 9.09765625 C4.34005859 9.08025391 4.34005859 9.08025391 2.9375 9.0625 C2.01839844 9.05347656 1.09929688 9.04445313 0.15234375 9.03515625 C-0.55792969 9.02355469 -1.26820312 9.01195312 -2 9 C-2 7.68 -2 6.36 -2 5 C0.64 5.33 3.28 5.66 6 6 C6 4.68 6 3.36 6 2 C4.02 2 2.04 2 0 2 C0 1.34 0 0.68 0 0 Z " fill="#2666E0" transform="translate(57,41)"/>
<path d="M0 0 C1 1 1 1 1.09765625 3.06640625 C1.08605469 3.89011719 1.07445312 4.71382812 1.0625 5.5625 C1.05347656 6.38878906 1.04445313 7.21507812 1.03515625 8.06640625 C1.02355469 8.70449219 1.01195312 9.34257813 1 10 C-0.98 10.99 -0.98 10.99 -3 12 C-3.66 9.69 -4.32 7.38 -5 5 C-4.34 5 -3.68 5 -3 5 C-3 4.34 -3 3.68 -3 3 C-4.32 2.67 -5.64 2.34 -7 2 C-7 1.34 -7 0.68 -7 0 C-4.31633121 -1.3418344 -2.84719317 -0.73004953 0 0 Z " fill="#93B0E9" transform="translate(51,25)"/>
<path d="M0 0 C4.02992782 0.55312735 8.02022924 1.1558062 12 2 C11.67 3.32 11.34 4.64 11 6 C11 5.01 11 4.02 11 3 C10.34 3 9.68 3 9 3 C8.67 3.99 8.34 4.98 8 6 C4.37 6 0.74 6 -3 6 C-3 4.68 -3 3.36 -3 2 C-2.01 2 -1.02 2 0 2 C0 1.34 0 0.68 0 0 Z " fill="#DDDDDD" transform="translate(70,56)"/>
<path d="M0 0 C1.98 0 3.96 0 6 0 C5.67 2.31 5.34 4.62 5 7 C5.99 7 6.98 7 8 7 C7.814375 6.030625 7.62875 5.06125 7.4375 4.0625 C7.293125 3.051875 7.14875 2.04125 7 1 C8 0 8 0 11.0625 -0.0625 C12.5165625 -0.0315625 12.5165625 -0.0315625 14 0 C13.67 0.99 13.34 1.98 13 3 C13 2.34 13 1.68 13 1 C11.68 1 10.36 1 9 1 C9 3.31 9 5.62 9 8 C7.35 8 5.7 8 4 8 C4 7.01 4 6.02 4 5 C3.34 5 2.68 5 2 5 C2 8.3 2 11.6 2 15 C1.34 14.67 0.68 14.34 0 14 C0 9.38 0 4.76 0 0 Z " fill="#3898F5" transform="translate(99,33)"/>
<path d="M0 0 C3.63 0 7.26 0 11 0 C11 0.99 11 1.98 11 3 C12.32 3.33 13.64 3.66 15 4 C12.69 4 10.38 4 8 4 C7.67 4.66 7.34 5.32 7 6 C7 5.01 7 4.02 7 3 C6.01 3 5.02 3 4 3 C4 4.32 4 5.64 4 7 C2.68 7 1.36 7 0 7 C0 4.69 0 2.38 0 0 Z " fill="#C4CEDA" transform="translate(25,25)"/>
<path d="M0 0 C4.29 0 8.58 0 13 0 C13 0.66 13 1.32 13 2 C10.36 2 7.72 2 5 2 C5 5.96 5 9.92 5 14 C4.67 14 4.34 14 4 14 C4 11.03 4 8.06 4 5 C2.68 5 1.36 5 0 5 C0 3.35 0 1.7 0 0 Z " fill="#339CF8" transform="translate(76,33)"/>
<path d="M0 0 C1.37478516 0.01740234 1.37478516 0.01740234 2.77734375 0.03515625 C3.69644531 0.04417969 4.61554688 0.05320313 5.5625 0.0625 C6.27277344 0.07410156 6.98304688 0.08570313 7.71484375 0.09765625 C7.71484375 1.74765625 7.71484375 3.39765625 7.71484375 5.09765625 C6.39484375 5.09765625 5.07484375 5.09765625 3.71484375 5.09765625 C3.71484375 4.43765625 3.71484375 3.77765625 3.71484375 3.09765625 C2.72484375 3.09765625 1.73484375 3.09765625 0.71484375 3.09765625 C0.71484375 6.72765625 0.71484375 10.35765625 0.71484375 14.09765625 C0.38484375 14.09765625 0.05484375 14.09765625 -0.28515625 14.09765625 C-0.28515625 10.13765625 -0.28515625 6.17765625 -0.28515625 2.09765625 C-1.27515625 1.76765625 -2.26515625 1.43765625 -3.28515625 1.09765625 C-2.28515625 0.09765625 -2.28515625 0.09765625 0 0 Z " fill="#3199F7" transform="translate(141.28515625,32.90234375)"/>
<path d="M0 0 C0.66 0 1.32 0 2 0 C2.309375 1.093125 2.61875 2.18625 2.9375 3.3125 C3.58337897 5.55407994 4.2623117 7.7869351 5 10 C2.03 10 -0.94 10 -4 10 C-3.52449439 8.51965236 -3.04448784 7.04074979 -2.5625 5.5625 C-2.29566406 4.73878906 -2.02882813 3.91507813 -1.75390625 3.06640625 C-1 1 -1 1 0 0 Z " fill="#807F7E" transform="translate(30,40)"/>
<path d="M0 0 C0.66 0 1.32 0 2 0 C2.33 1.98 2.66 3.96 3 6 C4.32 6.33 5.64 6.66 7 7 C7 7.99 7 8.98 7 10 C4.69 10 2.38 10 0 10 C0 9.34 0 8.68 0 8 C-0.66 8 -1.32 8 -2 8 C-1.125 1.125 -1.125 1.125 0 0 Z " fill="#1079EC" transform="translate(22,25)"/>
<path d="M0 0 C2.97 0 5.94 0 9 0 C9 1.65 9 3.3 9 5 C6.03 5 3.06 5 0 5 C0 3.35 0 1.7 0 0 Z " fill="#144FCC" transform="translate(20,41)"/>
<path d="M0 0 C4 0 4 0 7 1 C7 2.32 7 3.64 7 5 C4.33333333 5.66666667 1.66666667 6.33333333 -1 7 C-1.04254356 5.00045254 -1.04080783 2.99958364 -1 1 C-0.67 0.67 -0.34 0.34 0 0 Z " fill="#D5D5D5" transform="translate(59,57)"/>
<path d="M0 0 C1.65 0 3.3 0 5 0 C5 0.66 5 1.32 5 2 C6.32 2 7.64 2 9 2 C9 5.96 9 9.92 9 14 C8.34 13.67 7.68 13.34 7 13 C7.33 9.7 7.66 6.4 8 3 C4.72226496 3.75150023 4.72226496 3.75150023 3 7 C3 6.01 3 5.02 3 4 C2.01 4 1.02 4 0 4 C0 2.68 0 1.36 0 0 Z " fill="#5695E8" transform="translate(32,31)"/>
<path d="M0 0 C1.32 0 2.64 0 4 0 C3.67 1.98 3.34 3.96 3 6 C4.65 6 6.3 6 8 6 C8.33 5.34 8.66 4.68 9 4 C9 4.99 9 5.98 9 7 C4.38 7 -0.24 7 -5 7 C-5 6.67 -5 6.34 -5 6 C-3.35 6 -1.7 6 0 6 C0 4.02 0 2.04 0 0 Z " fill="#90AFEE" transform="translate(104,43)"/>
<path d="M0 0 C0.33 0.66 0.66 1.32 1 2 C2.32 2 3.64 2 5 2 C5 3.32 5 4.64 5 6 C2.36 6.33 -0.28 6.66 -3 7 C-2.67 5.68 -2.34 4.36 -2 3 C-3.32 2.67 -4.64 2.34 -6 2 C-4.02 2 -2.04 2 0 2 C0 1.34 0 0.68 0 0 Z " fill="#D3D3D3" transform="translate(144,56)"/>
<path d="M0 0 C0.12375 0.78375 0.2475 1.5675 0.375 2.375 C0.79117993 5.14057822 0.79117993 5.14057822 3 7 C2 8 2 8 -1.0625 8.0625 C-2.031875 8.041875 -3.00125 8.02125 -4 8 C-4 5.69 -4 3.38 -4 1 C-2 0 -2 0 0 0 Z " fill="#154AA5" transform="translate(36,38)"/>
<path d="M0 0 C0.66 0 1.32 0 2 0 C2 0.99 2 1.98 2 3 C2.66 3 3.32 3 4 3 C4 3.66 4 4.32 4 5 C6.31 5 8.62 5 11 5 C11 5.66 11 6.32 11 7 C7.37 7 3.74 7 0 7 C0 4.69 0 2.38 0 0 Z " fill="#D1D8E3" transform="translate(18,30)"/>
<path d="M0 0 C1.98 0 3.96 0 6 0 C6.33 1.65 6.66 3.3 7 5 C4.36 5 1.72 5 -1 5 C-0.67 3.35 -0.34 1.7 0 0 Z " fill="#D4D4D4" transform="translate(85,57)"/>
<path d="M0 0 C-0.66 1.65 -1.32 3.3 -2 5 C-4.875 5.125 -4.875 5.125 -8 5 C-8.66 4.34 -9.32 3.68 -10 3 C-9.34 3 -8.68 3 -8 3 C-8 2.34 -8 1.68 -8 1 C-5.29120665 -0.35439668 -2.99066732 -0.06501451 0 0 Z " fill="#DFDFDF" transform="translate(41,57)"/>
<path d="M0 0 C0 1.65 0 3.3 0 5 C-3.3 5 -6.6 5 -10 5 C-9.67 4.01 -9.34 3.02 -9 2 C-9 2.66 -9 3.32 -9 4 C-8.34 4 -7.68 4 -7 4 C-7 3.34 -7 2.68 -7 2 C-2.25 0 -2.25 0 0 0 Z " fill="#D5D5D5" transform="translate(184,57)"/>
<path d="M0 0 C4.62 0 9.24 0 14 0 C14 0.33 14 0.66 14 1 C12.02 1.33 10.04 1.66 8 2 C8 3.98 8 5.96 8 8 C7.01 8 6.02 8 5 8 C5.33 5.69 5.66 3.38 6 1 C4.02 1 2.04 1 0 1 C0 0.67 0 0.34 0 0 Z " fill="#DAEDFD" transform="translate(99,32)"/>
<path d="M0 0 C2.00720923 0.28674418 4.0085944 0.61866701 6 1 C6 2.32 6 3.64 6 5 C3.69 5 1.38 5 -1 5 C-1 1 -1 1 0 0 Z " fill="#D2D2D2" transform="translate(161,57)"/>
<path d="M0 0 C0.66 0 1.32 0 2 0 C2 1.98 2 3.96 2 6 C2.66 6 3.32 6 4 6 C4 6.99 4 7.98 4 9 C2.02 9 0.04 9 -2 9 C-2 8.01 -2 7.02 -2 6 C-1.34 6 -0.68 6 0 6 C0 4.02 0 2.04 0 0 Z " fill="#1760E0" transform="translate(124,41)"/>
<path d="M0 0 C4.95 0.33 9.9 0.66 15 1 C15 1.33 15 1.66 15 2 C11.7 2 8.4 2 5 2 C5 3.98 5 5.96 5 8 C4.67 8 4.34 8 4 8 C4 6.02 4 4.04 4 2 C2.02 2.99 2.02 2.99 0 4 C0 2.68 0 1.36 0 0 Z " fill="#34A1F9" transform="translate(20,23)"/>
<path d="M0 0 C0 1.65 0 3.3 0 5 C-1.65 5.33 -3.3 5.66 -5 6 C-5.33 4.35 -5.66 2.7 -6 1 C-3.92446352 0.4465236 -2.15634036 0 0 0 Z " fill="#D6D6D6" transform="translate(158,57)"/>
<path d="M0 0 C1.65 0 3.3 0 5 0 C5 1.98 5 3.96 5 6 C3.68 6 2.36 6 1 6 C0.67 4.02 0.34 2.04 0 0 Z " fill="#7197E1" transform="translate(46,30)"/>
<path d="M0 0 C2.64 0 5.28 0 8 0 C8 0.99 8 1.98 8 3 C7.01 3 6.02 3 5 3 C5 2.34 5 1.68 5 1 C4.34 1 3.68 1 3 1 C2.67 2.65 2.34 4.3 2 6 C1.34 5.67 0.68 5.34 0 5 C0 3.35 0 1.7 0 0 Z " fill="#097FF2" transform="translate(81,35)"/>
<path d="M0 0 C0.99 0.33 1.98 0.66 3 1 C2.01 1.33 1.02 1.66 0 2 C0.33 2.66 0.66 3.32 1 4 C1.99 4.33 2.98 4.66 4 5 C4 5.66 4 6.32 4 7 C2.02 7 0.04 7 -2 7 C-2 5.02 -2 3.04 -2 1 C-1.34 0.67 -0.68 0.34 0 0 Z " fill="#CEDBF5" transform="translate(44,23)"/>
<path d="M0 0 C1.66666667 0 3.33333333 0 5 0 C5 1.65 5 3.3 5 5 C3.35 5.33 1.7 5.66 0 6 C0 4.02 0 2.04 0 0 Z " fill="#CACACA" transform="translate(12,56)"/>
<path d="M0 0 C0.99 0 1.98 0 3 0 C3 2.64 3 5.28 3 8 C2.01 8 1.02 8 0 8 C0 5.36 0 2.72 0 0 Z " fill="#0273ED" transform="translate(138,35)"/>
<path d="M0 0 C0.99 0 1.98 0 3 0 C3.1875 3.375 3.1875 3.375 3 7 C2.01 7.66 1.02 8.32 0 9 C0 6.03 0 3.06 0 0 Z " fill="#93918F" transform="translate(29,28)"/>
<path d="M0 0 C2.97 0.495 2.97 0.495 6 1 C5.67 2.32 5.34 3.64 5 5 C5.66 5.33 6.32 5.66 7 6 C6.01 6 5.02 6 4 6 C3.67 5.34 3.34 4.68 3 4 C0.97536745 3.34786708 0.97536745 3.34786708 -1 3 C-0.67 2.01 -0.34 1.02 0 0 Z " fill="#E0E0E0" transform="translate(136,58)"/>
<path d="M0 0 C0 1.32 0 2.64 0 4 C-1.98 4 -3.96 4 -6 4 C-6 2.68 -6 1.36 -6 0 C-3 -1 -3 -1 0 0 Z " fill="#D1D1D1" transform="translate(73,58)"/>
<path d="M0 0 C3.125 -0.1875 3.125 -0.1875 6 0 C6 1.32 6 2.64 6 4 C3.36 3.67 0.72 3.34 -2 3 C-1.34 2.01 -0.68 1.02 0 0 Z " fill="#C9DCF8" transform="translate(57,43)"/>
<path d="M0 0 C1.32 0 2.64 0 4 0 C4 1.65 4 3.3 4 5 C2.68 5 1.36 5 0 5 C0 3.35 0 1.7 0 0 Z " fill="#0486F6" transform="translate(36,23)"/>
<path d="M0 0 C3 3.75 3 3.75 3 6 C1.35 6 -0.3 6 -2 6 C-1.34 4.02 -0.68 2.04 0 0 Z " fill="#0954DE" transform="translate(109,43)"/>
<path d="M0 0 C2.97 0 5.94 0 9 0 C7.515 1.485 7.515 1.485 6 3 C2.8125 2.6875 2.8125 2.6875 0 2 C0 1.34 0 0.68 0 0 Z " fill="#0B6BE9" transform="translate(57,41)"/>
<path d="M0 0 C0.66 0 1.32 0 2 0 C2 1.98 2 3.96 2 6 C1.01 6.33 0.02 6.66 -1 7 C-1.04254356 5.00045254 -1.04080783 2.99958364 -1 1 C-0.67 0.67 -0.34 0.34 0 0 Z " fill="#909090" transform="translate(16,31)"/>
<path d="M0 0 C2.475 0.495 2.475 0.495 5 1 C5 2.32 5 3.64 5 5 C3.68 5 2.36 5 1 5 C0.67 3.35 0.34 1.7 0 0 Z " fill="#CDCDCD" transform="translate(28,57)"/>
<path d="M0 0 C0.66 0.33 1.32 0.66 2 1 C2.625 4.0625 2.625 4.0625 3 7 C1.35 7 -0.3 7 -2 7 C-1.34 6.67 -0.68 6.34 0 6 C0 4.02 0 2.04 0 0 Z " fill="#0352DE" transform="translate(101,42)"/>
<path d="M0 0 C0.99 0 1.98 0 3 0 C3 0.66 3 1.32 3 2 C4.32 2.33 5.64 2.66 7 3 C4.69 3.33 2.38 3.66 0 4 C0 2.68 0 1.36 0 0 Z " fill="#E0EEFC" transform="translate(59,36)"/>
<path d="M0 0 C2.31 0.33 4.62 0.66 7 1 C7.33 1.99 7.66 2.98 8 4 C6.68 4 5.36 4 4 4 C4 3.34 4 2.68 4 2 C2.68 2 1.36 2 0 2 C0 1.34 0 0.68 0 0 Z " fill="#DEE6F6" transform="translate(33,29)"/>
</svg>
